<svg width="27" height="27" viewBox="0 0 27 27" fill="none" xmlns="http://www.w3.org/2000/svg">
<circle cx="13.5" cy="13.5" r="12.5" fill="white" stroke="#CACDD8" stroke-width="2"/>
<path d="M8.16298 19.9038H8.2377L11.6994 19.5884C12.0786 19.5506 12.4333 19.3835 12.7039 19.1152L20.1752 11.6439C20.4652 11.3375 20.6219 10.9287 20.611 10.507C20.6001 10.0853 20.4225 9.68512 20.1171 9.39415L17.8425 7.11954C17.5456 6.84069 17.1566 6.68069 16.7495 6.66998C16.3423 6.65926 15.9454 6.79858 15.6343 7.06143L8.16298 14.5328C7.89465 14.8034 7.72757 15.158 7.6898 15.5372L7.33283 18.999C7.32165 19.1206 7.33743 19.2431 7.37904 19.3579C7.42065 19.4727 7.48708 19.5769 7.57358 19.6631C7.65115 19.74 7.74314 19.8009 7.84428 19.8422C7.94543 19.8835 8.05373 19.9045 8.16298 19.9038ZM16.6886 8.28175L18.9549 10.5481L17.2946 12.1668L15.0698 9.94205L16.6886 8.28175ZM9.30029 15.6784L13.974 11.0378L16.2154 13.2792L11.5666 17.9281L9.07615 18.1605L9.30029 15.6784Z" fill="#A2A6B0"/>
</svg>
