<svg width="1042" height="1057" viewBox="0 0 1042 1057" fill="none" xmlns="http://www.w3.org/2000/svg">
<path opacity="0.5" d="M318.343 -17.3058C198.405 83.2166 179.819 273.298 98.5892 413.527C70.3124 462.322 33.7749 505.992 14.7119 560.123C-29.0536 684.026 31.1802 824.572 111.801 922.981C150.245 969.927 195.149 1012.94 249.478 1032.72C291.258 1047.94 336.056 1048.57 380.033 1048.97L1150.5 1056.9C1236.52 1057.77 1332.1 1054.62 1393.95 988.208C1436.57 942.478 1453.89 875.692 1468.58 811.944C1486.64 733.613 1503 648.546 1474.91 573.94C1442.82 488.582 1361.67 440.21 1311.26 366.555C1229.45 247.223 1231.33 66.7314 1127.14 -28.5336C1078.51 -72.9959 1014.33 -90.4321 951.792 -99.1502C833.892 -115.609 722.215 -84.5408 606.433 -88.8734C507.464 -92.572 400.447 -86.1259 318.343 -17.3058Z" fill="#E7ECFF"/>
<path opacity="0.24" d="M559.786 878.613C513.337 883.283 465.463 888.419 424.589 911.264C419.119 914.328 413.564 917.942 410.546 923.458C404.488 934.553 411.363 949.177 422.032 955.855C432.701 962.533 445.865 963.294 458.42 963.844C681.987 973.586 905.889 969.761 1129.65 965.957C1194.62 964.858 1260.63 963.59 1322.9 944.718C1334.1 941.337 1346.4 936.265 1350.61 925.212C1356.13 910.757 1343.55 894.737 1328.88 890.236C1314.2 885.735 1298.55 889.095 1283.37 891.06C1230.68 897.886 1177.52 887.446 1125.05 879.099C1022.35 862.784 915.783 849.512 811.755 847.039C776.289 846.215 746.001 858.515 711.29 863.376C661.173 870.434 610.176 873.541 559.786 878.613Z" fill="#505F98"/>
<path d="M377.077 445.326L492.907 209.408L561.893 243.19L446.063 479.108L377.077 445.326Z" fill="white"/>
<path d="M403.922 438.055L418.036 409.22L464.5 431.903L450.386 460.738L403.922 438.055Z" fill="#505F98"/>
<path d="M403.922 438.055L418.036 409.22L464.5 431.903L450.386 460.738L403.922 438.055Z" fill="url(#paint0_linear_0_27)"/>
<path d="M418.038 409.445L432.151 380.61L478.615 403.293L464.502 432.128L418.038 409.445Z" fill="#505F98"/>
<path d="M418.038 409.445L432.151 380.61L478.615 403.293L464.502 432.128L418.038 409.445Z" fill="url(#paint1_linear_0_27)"/>
<path d="M432.134 380.826L446.248 351.991L492.712 374.674L478.598 403.509L432.134 380.826Z" fill="#505F98"/>
<path d="M432.134 380.826L446.248 351.991L492.712 374.674L478.598 403.509L432.134 380.826Z" fill="url(#paint2_linear_0_27)"/>
<path d="M446.271 352.237L460.384 323.402L506.848 346.085L492.735 374.92L446.271 352.237Z" fill="#505F98"/>
<path d="M446.271 352.237L460.384 323.402L506.848 346.085L492.735 374.92L446.271 352.237Z" fill="url(#paint3_linear_0_27)"/>
<path d="M460.377 323.599L474.49 294.764L520.954 317.447L506.841 346.282L460.377 323.599Z" fill="#505F98"/>
<path d="M474.492 295.01L488.606 266.175L535.07 288.858L520.956 317.693L474.492 295.01Z" fill="#505F98"/>
<path d="M488.589 266.391L502.702 237.556L549.166 260.239L535.053 289.074L488.589 266.391Z" fill="#505F98"/>
<path d="M472.904 298.598L487.018 269.763L533.482 292.446L519.368 321.281L472.904 298.598Z" fill="url(#paint4_linear_0_27)"/>
<path d="M487.029 269.97L501.142 241.135L547.607 263.817L533.493 292.652L487.029 269.97Z" fill="url(#paint5_linear_0_27)"/>
<rect x="787.545" y="763" width="98.0679" height="82" fill="#505F98"/>
<rect x="787.545" y="763" width="98.0679" height="82" fill="url(#paint6_linear_0_27)"/>
<rect x="579.401" y="421" width="518.359" height="355" rx="9.37" fill="#505F98"/>
<path opacity="0.65" d="M1080.75 450.438V744.562C1080.77 749.443 1078.84 754.129 1075.4 757.588C1071.96 761.047 1067.29 762.994 1062.41 763H610.748C605.873 762.989 601.203 761.04 597.764 757.582C594.325 754.125 592.399 749.441 592.41 744.562V450.438C592.399 445.559 594.325 440.875 597.764 437.418C601.203 433.96 605.873 432.011 610.748 432H1062.41C1067.29 432.006 1071.96 433.953 1075.4 437.412C1078.84 440.871 1080.77 445.557 1080.75 450.438Z" fill="url(#paint7_linear_0_27)"/>
<rect x="742.514" y="835" width="206.143" height="21" fill="#505F98"/>
<rect x="787.545" y="823" width="98.0679" height="12" fill="url(#paint8_linear_0_27)"/>
<path fill-rule="evenodd" clip-rule="evenodd" d="M942.653 249.241V269.715L929.944 269.819C928.707 279.346 925.084 288.41 919.405 296.181L930.26 307.351L915.38 321.6L904.694 310.578C898.105 315.062 890.67 318.17 882.838 319.714V333H862.267V320.029C853.483 318.76 845.11 315.497 837.797 310.494L828.861 319.316L814.297 304.647L823.17 295.993C817.584 288.219 814.021 279.191 812.801 269.715H798.553V249.241H813.307C815.136 241.093 818.732 233.441 823.845 226.819L815.604 218.332L830.484 204.082L838.914 212.82C845.885 208.214 853.809 205.228 862.099 204.082V190H882.669V204.396C891.038 206.055 898.947 209.493 905.853 214.476L916.391 204.166L930.871 218.709L920.333 229.187C924.464 235.267 927.397 242.073 928.974 249.241H942.653ZM836.512 262.15C836.488 281.211 852.011 296.682 871.182 296.705C880.394 296.733 889.238 293.113 895.759 286.644C902.281 280.176 905.943 271.392 905.938 262.233C905.961 243.172 890.438 227.701 871.267 227.678C852.095 227.655 836.535 243.088 836.512 262.15Z" fill="#505F98"/>
<path fill-rule="evenodd" clip-rule="evenodd" d="M1018.71 283.354L1017.79 295.396L1010.27 294.938C1009.15 300.475 1006.64 305.641 1002.99 309.958L1008.86 317.021L999.507 324.729L993.747 317.792C989.693 320.13 985.206 321.625 980.558 322.188L979.953 330L967.912 329.104L968.496 321.479C963.411 320.344 958.656 318.056 954.598 314.792L948.964 319.583L941.096 310.396L946.668 305.688C943.74 300.876 942.055 295.414 941.764 289.792L933.646 289.167L934.544 277.146L943.162 277.792C944.586 273.085 947.014 268.743 950.278 265.062L945.834 259.708L955.182 252L959.711 257.5C963.982 255.095 968.738 253.672 973.63 253.333L974.256 245L986.297 245.896L985.65 254.375C990.457 255.714 994.915 258.081 998.714 261.312L1005.33 255.708L1013.18 264.896L1006.5 270.583C1008.66 274.339 1010.08 278.477 1010.67 282.771L1018.71 283.354ZM956.008 286.243C955.153 297.436 963.546 307.203 974.757 308.062C980.151 308.487 985.492 306.747 989.597 303.228C993.703 299.708 996.232 294.7 996.627 289.312C997.469 278.119 989.066 268.361 977.854 267.514C966.642 266.666 956.863 275.05 956.008 286.243Z" fill="#505F98"/>
<path d="M1080.75 450.513V457H592.41V450.513C592.399 445.614 594.325 440.912 597.764 437.44C601.203 433.968 605.874 432.011 610.749 432H1062.41C1067.29 432.006 1071.96 433.961 1075.4 437.434C1078.84 440.907 1080.77 445.613 1080.75 450.513Z" fill="url(#paint9_linear_0_27)"/>
<rect x="602.417" y="489" width="47.0326" height="227" fill="url(#paint10_linear_0_27)"/>
<rect x="720.499" y="505" width="221.153" height="209" fill="url(#paint11_linear_0_27)"/>
<rect x="771.534" y="603" width="7.00485" height="9" fill="url(#paint12_linear_0_27)"/>
<rect x="771.534" y="561" width="7.00485" height="9" fill="url(#paint13_linear_0_27)"/>
<rect x="676.469" y="603" width="7.00485" height="9" fill="url(#paint14_linear_0_27)"/>
<rect x="676.469" y="561" width="7.00485" height="9" fill="url(#paint15_linear_0_27)"/>
<rect x="771.534" y="516" width="7.00485" height="9" fill="url(#paint16_linear_0_27)"/>
<rect x="677.469" y="516" width="7.00485" height="9" fill="url(#paint17_linear_0_27)"/>
<rect x="725.502" y="516" width="7.00485" height="9" fill="url(#paint18_linear_0_27)"/>
<rect x="725.502" y="603" width="7.00485" height="9" fill="url(#paint19_linear_0_27)"/>
<path fill-rule="evenodd" clip-rule="evenodd" d="M689.478 601H767.532V528H689.478V601ZM759.67 593.282H697.34V535.656H759.67V593.282Z" fill="#505F98"/>
<path fill-rule="evenodd" clip-rule="evenodd" d="M689.478 601H767.532V528H689.478V601ZM759.67 593.282H697.34V535.656H759.67V593.282Z" fill="url(#paint20_linear_0_27)"/>
<rect x="973.674" y="469" width="100.069" height="100" fill="url(#paint21_linear_0_27)"/>
<rect x="973.674" y="579" width="100.069" height="100" fill="url(#paint22_linear_0_27)"/>
<rect opacity="0.65" x="602.417" y="488" width="47.0326" height="13" fill="url(#paint23_linear_0_27)"/>
<path d="M399.381 419.827L604.51 255.293L652.622 315.118L447.494 479.652L399.381 419.827Z" fill="white"/>
<path d="M428.105 424.455L453.172 404.235L485.755 444.522L460.687 464.742L428.105 424.455Z" fill="#505F98"/>
<path d="M428.105 424.455L453.172 404.235L485.755 444.522L460.687 464.742L428.105 424.455Z" fill="url(#paint24_linear_0_27)"/>
<path d="M451.723 404.689L476.755 384.56L509.19 424.79L484.158 444.919L451.723 404.689Z" fill="#505F98"/>
<path d="M451.723 404.689L476.755 384.56L509.19 424.79L484.158 444.919L451.723 404.689Z" fill="url(#paint25_linear_0_27)"/>
<path d="M476.667 384.761L501.699 364.633L534.134 404.863L509.101 424.991L476.667 384.761Z" fill="#505F98"/>
<path d="M476.667 384.761L501.699 364.633L534.134 404.863L509.101 424.991L476.667 384.761Z" fill="url(#paint26_linear_0_27)"/>
<path d="M501.594 364.847L526.626 344.718L559.061 384.948L534.029 405.077L501.594 364.847Z" fill="#505F98"/>
<path d="M501.594 364.847L526.626 344.718L559.061 384.948L534.029 405.077L501.594 364.847Z" fill="url(#paint27_linear_0_27)"/>
<path d="M527.714 344.389L552.782 324.169L585.364 364.456L560.297 384.677L527.714 344.389Z" fill="#505F98"/>
<path d="M552.794 323.99L577.862 303.77L610.444 344.057L585.377 364.277L552.794 323.99Z" fill="#505F98"/>
<path d="M576.402 305.051L601.434 284.923L633.869 325.153L608.837 345.281L576.402 305.051Z" fill="#505F98"/>
<path d="M606.42 348.218L585.321 365L553.383 324.782L574.482 308L606.42 348.218Z" fill="url(#paint28_linear_0_27)"/>
<path d="M573.445 307.648L598.477 287.519L630.912 327.749L605.88 347.878L573.445 307.648Z" fill="url(#paint29_linear_0_27)"/>
<path d="M522.362 429.15V552H501.347V429.15C501.347 424.61 504.166 420.57 508.366 419.089V406.825C508.366 404.712 510.041 403 512.109 403C514.176 403 515.852 404.712 515.852 406.825V419.297C519.771 420.935 522.34 424.823 522.362 429.15Z" fill="#505F98"/>
<path d="M522.362 429.15V552H501.347V429.15C501.347 424.61 504.166 420.57 508.366 419.089V406.825C508.366 404.712 510.041 403 512.109 403C514.176 403 515.852 404.712 515.852 406.825V419.297C519.771 420.935 522.34 424.823 522.362 429.15Z" fill="url(#paint30_linear_0_27)"/>
<rect x="488.338" y="507" width="50.0346" height="9" rx="2.245" fill="#505F98"/>
<path d="M513.044 589C504.471 589 497.344 576.185 497.344 567.634V511H528.366V567.634C528.366 576.185 521.596 589 513.044 589Z" fill="#505F98"/>
<rect x="488.338" y="507" width="50.0346" height="9" rx="2.245" fill="url(#paint31_linear_0_27)"/>
<path d="M513.044 589C504.471 589 497.344 576.366 497.344 567.937V516H528.366V567.937C528.366 576.366 521.596 589 513.044 589Z" fill="url(#paint32_linear_0_27)"/>
<path d="M713.136 649C712.463 645.436 712.037 640.39 713.331 640.043C716.059 639.275 713.136 649 713.136 649Z" fill="#28353D"/>
<path d="M856.395 844.507C855.909 857.102 846.147 903.388 845.83 916.004C845.83 920.202 846.95 926.647 845.597 930.698C842.808 939.284 832.919 938.108 831.63 933.049L831.144 930.53C826.559 906.012 833.933 878.198 831.144 846.186C829.475 826.643 821.699 788.963 816.606 788.711C813.923 788.711 752.665 917.851 747.34 925.807C744.72 929.817 737.345 929.187 733.774 932.42C730.203 935.652 763.526 834.515 777.493 781.07C780.751 770.039 782.875 758.709 783.833 747.252C784.213 740.64 782.079 738.415 788.185 736.463C792.412 735.119 798.265 735.497 802.787 735.182C807.71 734.804 853.5 734.72 853.5 737.953C853.057 755.502 857.578 815.412 856.395 844.507Z" fill="#606161"/>
<path d="M856.395 844.507C855.909 857.102 846.147 903.388 845.83 916.004C845.83 920.202 846.95 926.647 845.597 930.698C842.808 939.284 832.919 938.108 831.63 933.049L831.144 930.53C826.559 906.012 833.933 878.198 831.144 846.186C829.475 826.643 821.699 788.963 816.606 788.711C813.923 788.711 752.665 917.851 747.34 925.807C744.72 929.817 737.345 929.187 733.774 932.42C730.203 935.652 763.526 834.515 777.493 781.07C780.751 770.039 782.875 758.709 783.833 747.252C784.213 740.64 782.079 738.415 788.185 736.463C792.412 735.119 798.265 735.497 802.787 735.182C807.71 734.804 853.5 734.72 853.5 737.953C853.057 755.502 857.578 815.412 856.395 844.507Z" fill="url(#paint33_linear_0_27)"/>
<path d="M802.322 576.148C801.937 572.163 800.054 570 798.215 570C796.375 570 795.241 572.12 795.626 576.148C795.713 579.122 797.957 581.597 800.932 582C802.793 582 802.729 580.134 802.322 576.148Z" fill="#FFCD9C"/>
<path d="M834.716 576.159C834.966 572.166 836.803 570 838.702 570C840.601 570 841.832 572.124 841.54 576.159C841.514 579.173 839.268 581.687 836.323 582C834.445 582 834.424 580.152 834.716 576.159Z" fill="#FFCD9C"/>
<path d="M838.44 593.672C838.181 595.777 829.266 605 819.121 605C808.976 605 800.6 596.577 798.83 593.208C797.06 589.839 804.184 546.505 808.306 542.884C812.429 539.262 829.137 541.641 830.54 543.558C833.907 548.085 839.541 585.27 838.44 593.672Z" fill="#F4AD7D"/>
<path d="M834.246 560.977C832.867 561.639 827.452 547.842 826.316 545.525C825.18 543.208 825.362 540.829 826.742 540.167C828.121 539.505 830.149 540.871 831.285 543.167C832.421 545.463 835.605 560.336 834.246 560.977Z" fill="#FFCD9C"/>
<path d="M803.876 559.987C802.446 559.501 806.233 545.179 807.059 542.703C807.885 540.228 809.739 538.599 811.089 539.086C812.439 539.573 813.003 541.984 812.177 544.481C811.351 546.977 805.226 560.474 803.876 559.987Z" fill="#FFCD9C"/>
<path d="M809.553 592H831.317L834.578 612.622C822.722 619.005 815.81 618.301 806.559 611.214L809.553 592Z" fill="#F4AD7D"/>
<path d="M818.567 596.13C818.567 595.75 819.472 595.43 820.568 595.43C821.664 595.43 822.57 595.75 822.57 596.13C822.57 596.51 821.688 596.57 820.568 596.57C819.448 596.57 818.567 596.53 818.567 596.13Z" fill="#F4AD7D"/>
<path d="M839.6 586.808C840.424 581.894 841.768 546.708 838.473 542.051C835.177 537.394 815.449 534.381 812.457 535.108C805.758 536.731 806.929 541.517 806.929 541.517C804.938 541.547 802.989 542.084 801.271 543.076C798.973 544.615 794.138 566.79 797.997 583.56C799.732 591.102 806.561 597.66 818.354 597.981C832.879 598.365 838.603 592.896 839.6 586.808Z" fill="#606161"/>
<path d="M812.539 536.762C814.098 535.448 816.118 534.828 818.138 535.041C824.271 535.008 830.355 536.14 836.073 538.376C839.243 539.488 842.122 541.311 844.493 543.708C846.88 546.173 847.979 549.627 847.461 553.034C846.408 558.047 841.146 561.148 839.42 565.97C838.031 569.837 839.02 573.575 839.062 577.463C839.09 580.606 838.865 583.746 838.388 586.852C837.42 592.906 831.884 598.344 817.675 597.983C806.224 597.664 799.593 591.143 797.909 583.644C795.629 571.198 796.227 558.389 799.656 546.215C805.828 547.648 812.142 548.361 818.475 548.339C825.19 548.395 831.886 547.611 838.409 546.002C839.525 552.503 839.504 565.524 839.146 575.253" fill="#606161"/>
<path d="M777.41 608.954C773.976 609.241 770.668 610.384 767.785 612.28C762.847 616.171 762.472 623.43 762.556 629.748C762.387 638.501 762.993 647.252 764.368 655.897C765.848 663.826 768.535 671.441 770.743 679.202C774.224 691.831 776.052 704.862 776.181 717.966C776.181 725.162 776.056 733.07 780.535 738.697C785.431 744.806 794.098 745.998 801.89 746.438C812.953 747.086 824.057 747.17 835.12 746.709C842.537 746.375 850.433 745.643 856.308 741.082C860.996 737.442 871.975 614.288 863.454 611.171C854.933 608.054 845.766 607.259 836.724 606.506C816.453 604.791 797.369 603.431 777.41 608.954Z" fill="#505F98"/>
<path d="M841.23 864.291C840.143 878.255 837.551 929 837.551 929L830.946 928.77C826.41 904.39 833.705 876.732 830.946 844.899C829.295 825.465 821.603 787.996 816.565 787.746C818.07 775.221 826.536 777.1 826.536 777.1C832.692 786.294 838.002 796.026 842.4 806.178C847.438 819.37 842.337 850.263 841.23 864.291Z" fill="url(#paint34_linear_0_27)"/>
<path d="M716.873 930.024C715.841 930.786 715.058 931.83 714.621 933.025C714.386 934.009 714.481 935.04 714.892 935.965C716.058 938.326 718.269 940.019 720.876 940.55C723.453 941.04 726.091 941.131 728.696 940.818L737.036 940.262C739.158 940.212 741.264 939.873 743.292 939.255C745.322 938.627 746.998 937.198 747.921 935.308C748.412 933.916 748.604 932.438 748.484 930.969C748.484 924.164 746.065 918.634 738.517 920.299C730.61 921.765 723.183 925.102 716.873 930.024Z" fill="#505F98"/>
<path d="M855.411 933.063C856.359 933.759 857.077 934.709 857.478 935.797C857.692 936.682 857.608 937.611 857.239 938.446C856.176 940.584 854.146 942.114 851.755 942.579C849.398 943.035 846.981 943.121 844.596 942.834L837.024 942.325C835.098 942.284 833.187 941.985 831.345 941.435C829.488 940.864 827.958 939.566 827.123 937.853C826.675 936.595 826.498 935.26 826.601 933.932C826.601 927.785 828.777 922.72 835.718 924.288C842.915 925.619 849.672 928.63 855.411 933.063Z" fill="#505F98"/>
<path d="M864.599 611C864.599 611 897.314 630.163 907.14 654.389C916.965 678.614 874.961 737 874.961 737L865.972 727.814C865.972 727.814 887.897 683.759 884.507 672.74C881.117 661.721 867.838 651.452 867.838 651.452L864.599 611Z" fill="#505F98"/>
<path d="M771.534 648.859C771.534 648.859 726.046 669.24 707.561 659.238C689.076 649.237 708.106 599 708.106 599L720.486 603.202C720.486 603.202 710.142 628.815 721.975 632.618C733.809 636.421 769.268 611.438 769.268 611.438L771.534 648.859Z" fill="#505F98"/>
<path d="M857.175 735.976C855.866 736.826 854.806 737.968 854.09 739.297C853.66 740.425 853.505 741.629 853.637 742.819C853.557 745.709 854.872 748.479 857.218 750.367C858.866 751.25 860.713 751.76 862.611 751.857C863.774 752.048 864.964 752.048 866.128 751.857C867.314 751.646 868.305 750.888 868.759 749.844C868.914 749.183 868.98 748.507 868.954 747.831C869.105 744.51 871.607 741.793 873.678 739.076C874.178 738.551 874.501 737.9 874.606 737.204C874.594 736.434 874.305 735.69 873.786 735.091C872.384 733.199 868.91 729.717 866.128 730.018C863.345 730.32 859.332 734.326 857.175 735.976Z" fill="#F4AD7D"/>
<path d="M728.294 591.435C728.886 590.611 729.29 589.679 729.48 588.698C729.631 587.683 729.094 586.687 728.14 586.211C726.624 585.647 724.822 587.13 723.328 586.504C722.822 586.235 722.399 585.846 722.098 585.375C720.333 582.945 719.321 580.093 719.175 577.143C719.261 575.571 719.113 573.995 718.736 572.463C718.292 570.886 716.708 569.849 715.001 570.018C713.595 570.331 712.804 571.689 711.925 572.776C711.046 573.863 709.288 575.158 708.146 576.516C706.195 579.307 705.079 582.55 704.916 585.898C704.301 590.077 703.905 594.861 706.981 597.87C709.354 600.189 716.583 602.927 719.9 601.694C723.57 600.315 726.448 594.444 728.294 591.435Z" fill="#F4AD7D"/>
<defs>
<linearGradient id="paint0_linear_0_27" x1="528.11" y1="505.166" x2="592.864" y2="376.6" gradientUnits="userSpaceOnUse">
<stop stop-color="#010101" stop-opacity="0.01"/>
<stop offset="0.95" stop-color="#010101"/>
</linearGradient>
<linearGradient id="paint1_linear_0_27" x1="583.271" y1="501.365" x2="676.125" y2="319.775" gradientUnits="userSpaceOnUse">
<stop stop-color="#010101" stop-opacity="0.01"/>
<stop offset="0.95" stop-color="#010101"/>
</linearGradient>
<linearGradient id="paint2_linear_0_27" x1="703.253" y1="510.092" x2="840.607" y2="199.948" gradientUnits="userSpaceOnUse">
<stop stop-color="#010101" stop-opacity="0.01"/>
<stop offset="0.95" stop-color="#010101"/>
</linearGradient>
<linearGradient id="paint3_linear_0_27" x1="831.087" y1="526.583" x2="1036.02" y2="79.1785" gradientUnits="userSpaceOnUse">
<stop stop-color="#010101" stop-opacity="0.01"/>
<stop offset="0.36" stop-color="#010101" stop-opacity="0.36"/>
<stop offset="0.95" stop-color="#010101"/>
</linearGradient>
<linearGradient id="paint4_linear_0_27" x1="682.434" y1="421.564" x2="799.594" y2="179.969" gradientUnits="userSpaceOnUse">
<stop stop-color="white" stop-opacity="0.01"/>
<stop offset="0.07" stop-color="white" stop-opacity="0.22"/>
<stop offset="0.16" stop-color="white" stop-opacity="0.45"/>
<stop offset="0.25" stop-color="white" stop-opacity="0.65"/>
<stop offset="0.33" stop-color="white" stop-opacity="0.8"/>
<stop offset="0.4" stop-color="white" stop-opacity="0.91"/>
<stop offset="0.46" stop-color="white" stop-opacity="0.98"/>
<stop offset="0.51" stop-color="white"/>
</linearGradient>
<linearGradient id="paint5_linear_0_27" x1="604.358" y1="368.444" x2="668.555" y2="232.555" gradientUnits="userSpaceOnUse">
<stop stop-color="white" stop-opacity="0.01"/>
<stop offset="0.07" stop-color="white" stop-opacity="0.22"/>
<stop offset="0.16" stop-color="white" stop-opacity="0.45"/>
<stop offset="0.25" stop-color="white" stop-opacity="0.65"/>
<stop offset="0.33" stop-color="white" stop-opacity="0.8"/>
<stop offset="0.4" stop-color="white" stop-opacity="0.91"/>
<stop offset="0.46" stop-color="white" stop-opacity="0.98"/>
<stop offset="0.51" stop-color="white"/>
</linearGradient>
<linearGradient id="paint6_linear_0_27" x1="909.68" y1="831.322" x2="920.101" y2="704.584" gradientUnits="userSpaceOnUse">
<stop stop-color="#010101" stop-opacity="0.01"/>
<stop offset="0.95" stop-color="#010101"/>
</linearGradient>
<linearGradient id="paint7_linear_0_27" x1="507.967" y1="368.517" x2="505.252" y2="818.071" gradientUnits="userSpaceOnUse">
<stop stop-color="white" stop-opacity="0.01"/>
<stop offset="0.07" stop-color="white" stop-opacity="0.22"/>
<stop offset="0.16" stop-color="white" stop-opacity="0.45"/>
<stop offset="0.25" stop-color="white" stop-opacity="0.65"/>
<stop offset="0.33" stop-color="white" stop-opacity="0.8"/>
<stop offset="0.4" stop-color="white" stop-opacity="0.91"/>
<stop offset="0.46" stop-color="white" stop-opacity="0.98"/>
<stop offset="0.51" stop-color="white"/>
</linearGradient>
<linearGradient id="paint8_linear_0_27" x1="254.313" y1="806.073" x2="254.413" y2="948.306" gradientUnits="userSpaceOnUse">
<stop stop-color="#010101" stop-opacity="0.01"/>
<stop offset="0.95" stop-color="#010101"/>
</linearGradient>
<linearGradient id="paint9_linear_0_27" x1="1406.73" y1="551.966" x2="1440.91" y2="144.855" gradientUnits="userSpaceOnUse">
<stop stop-color="white" stop-opacity="0.01"/>
<stop offset="0.07" stop-color="white" stop-opacity="0.22"/>
<stop offset="0.16" stop-color="white" stop-opacity="0.45"/>
<stop offset="0.25" stop-color="white" stop-opacity="0.65"/>
<stop offset="0.33" stop-color="white" stop-opacity="0.8"/>
<stop offset="0.4" stop-color="white" stop-opacity="0.91"/>
<stop offset="0.46" stop-color="white" stop-opacity="0.98"/>
<stop offset="0.51" stop-color="white"/>
</linearGradient>
<linearGradient id="paint10_linear_0_27" x1="579.846" y1="441.87" x2="717.853" y2="810.142" gradientUnits="userSpaceOnUse">
<stop stop-color="white" stop-opacity="0.01"/>
<stop offset="0.07" stop-color="white" stop-opacity="0.22"/>
<stop offset="0.16" stop-color="white" stop-opacity="0.45"/>
<stop offset="0.25" stop-color="white" stop-opacity="0.65"/>
<stop offset="0.33" stop-color="white" stop-opacity="0.8"/>
<stop offset="0.4" stop-color="white" stop-opacity="0.91"/>
<stop offset="0.46" stop-color="white" stop-opacity="0.98"/>
<stop offset="0.51" stop-color="white"/>
</linearGradient>
<linearGradient id="paint11_linear_0_27" x1="683.377" y1="464.99" x2="680.051" y2="747.698" gradientUnits="userSpaceOnUse">
<stop stop-color="white" stop-opacity="0.01"/>
<stop offset="0.07" stop-color="white" stop-opacity="0.22"/>
<stop offset="0.16" stop-color="white" stop-opacity="0.45"/>
<stop offset="0.25" stop-color="white" stop-opacity="0.65"/>
<stop offset="0.33" stop-color="white" stop-opacity="0.8"/>
<stop offset="0.4" stop-color="white" stop-opacity="0.91"/>
<stop offset="0.46" stop-color="white" stop-opacity="0.98"/>
<stop offset="0.51" stop-color="white"/>
</linearGradient>
<linearGradient id="paint12_linear_0_27" x1="999.211" y1="656.704" x2="1018.4" y2="78.785" gradientUnits="userSpaceOnUse">
<stop stop-color="#010101" stop-opacity="0.01"/>
<stop offset="0.95" stop-color="#010101"/>
</linearGradient>
<linearGradient id="paint13_linear_0_27" x1="998.359" y1="657.045" x2="1017.55" y2="79.1255" gradientUnits="userSpaceOnUse">
<stop stop-color="#010101" stop-opacity="0.01"/>
<stop offset="0.95" stop-color="#010101"/>
</linearGradient>
<linearGradient id="paint14_linear_0_27" x1="904.18" y1="654.354" x2="923.396" y2="76.4352" gradientUnits="userSpaceOnUse">
<stop stop-color="#010101" stop-opacity="0.01"/>
<stop offset="0.95" stop-color="#010101"/>
</linearGradient>
<linearGradient id="paint15_linear_0_27" x1="903.328" y1="654.694" x2="922.544" y2="76.7757" gradientUnits="userSpaceOnUse">
<stop stop-color="#010101" stop-opacity="0.01"/>
<stop offset="0.95" stop-color="#010101"/>
</linearGradient>
<linearGradient id="paint16_linear_0_27" x1="997.421" y1="658.545" x2="1016.64" y2="80.6267" gradientUnits="userSpaceOnUse">
<stop stop-color="#010101" stop-opacity="0.01"/>
<stop offset="0.95" stop-color="#010101"/>
</linearGradient>
<linearGradient id="paint17_linear_0_27" x1="903.39" y1="656.236" x2="922.578" y2="78.3169" gradientUnits="userSpaceOnUse">
<stop stop-color="#010101" stop-opacity="0.01"/>
<stop offset="0.95" stop-color="#010101"/>
</linearGradient>
<linearGradient id="paint18_linear_0_27" x1="951.38" y1="657.396" x2="970.597" y2="79.4991" gradientUnits="userSpaceOnUse">
<stop stop-color="#010101" stop-opacity="0.01"/>
<stop offset="0.95" stop-color="#010101"/>
</linearGradient>
<linearGradient id="paint19_linear_0_27" x1="953.196" y1="654.843" x2="972.413" y2="76.9246" gradientUnits="userSpaceOnUse">
<stop stop-color="#010101" stop-opacity="0.01"/>
<stop offset="0.95" stop-color="#010101"/>
</linearGradient>
<linearGradient id="paint20_linear_0_27" x1="608.119" y1="669.399" x2="840.351" y2="886.094" gradientUnits="userSpaceOnUse">
<stop stop-color="white" stop-opacity="0.01"/>
<stop offset="0.07" stop-color="white" stop-opacity="0.22"/>
<stop offset="0.16" stop-color="white" stop-opacity="0.45"/>
<stop offset="0.25" stop-color="white" stop-opacity="0.65"/>
<stop offset="0.33" stop-color="white" stop-opacity="0.8"/>
<stop offset="0.4" stop-color="white" stop-opacity="0.91"/>
<stop offset="0.46" stop-color="white" stop-opacity="0.98"/>
<stop offset="0.51" stop-color="white"/>
</linearGradient>
<linearGradient id="paint21_linear_0_27" x1="956.986" y1="449.864" x2="955.2" y2="585.026" gradientUnits="userSpaceOnUse">
<stop stop-color="white" stop-opacity="0.01"/>
<stop offset="0.07" stop-color="white" stop-opacity="0.22"/>
<stop offset="0.16" stop-color="white" stop-opacity="0.45"/>
<stop offset="0.25" stop-color="white" stop-opacity="0.65"/>
<stop offset="0.33" stop-color="white" stop-opacity="0.8"/>
<stop offset="0.4" stop-color="white" stop-opacity="0.91"/>
<stop offset="0.46" stop-color="white" stop-opacity="0.98"/>
<stop offset="0.51" stop-color="white"/>
</linearGradient>
<linearGradient id="paint22_linear_0_27" x1="956.986" y1="559.864" x2="955.2" y2="695.026" gradientUnits="userSpaceOnUse">
<stop stop-color="white" stop-opacity="0.01"/>
<stop offset="0.07" stop-color="white" stop-opacity="0.22"/>
<stop offset="0.16" stop-color="white" stop-opacity="0.45"/>
<stop offset="0.25" stop-color="white" stop-opacity="0.65"/>
<stop offset="0.33" stop-color="white" stop-opacity="0.8"/>
<stop offset="0.4" stop-color="white" stop-opacity="0.91"/>
<stop offset="0.46" stop-color="white" stop-opacity="0.98"/>
<stop offset="0.51" stop-color="white"/>
</linearGradient>
<linearGradient id="paint23_linear_0_27" x1="593.145" y1="485.281" x2="593.128" y2="503.481" gradientUnits="userSpaceOnUse">
<stop stop-color="white" stop-opacity="0.01"/>
<stop offset="0.07" stop-color="white" stop-opacity="0.22"/>
<stop offset="0.16" stop-color="white" stop-opacity="0.45"/>
<stop offset="0.25" stop-color="white" stop-opacity="0.65"/>
<stop offset="0.33" stop-color="white" stop-opacity="0.8"/>
<stop offset="0.4" stop-color="white" stop-opacity="0.91"/>
<stop offset="0.46" stop-color="white" stop-opacity="0.98"/>
<stop offset="0.51" stop-color="white"/>
</linearGradient>
<linearGradient id="paint24_linear_0_27" x1="512.445" y1="538.052" x2="625.876" y2="448.635" gradientUnits="userSpaceOnUse">
<stop stop-color="#010101" stop-opacity="0.01"/>
<stop offset="0.95" stop-color="#010101"/>
</linearGradient>
<linearGradient id="paint25_linear_0_27" x1="562.284" y1="557.988" x2="723.56" y2="432.867" gradientUnits="userSpaceOnUse">
<stop stop-color="#010101" stop-opacity="0.01"/>
<stop offset="0.95" stop-color="#010101"/>
</linearGradient>
<linearGradient id="paint26_linear_0_27" x1="667.228" y1="616.751" x2="923.392" y2="394.028" gradientUnits="userSpaceOnUse">
<stop stop-color="#010101" stop-opacity="0.01"/>
<stop offset="0.95" stop-color="#010101"/>
</linearGradient>
<linearGradient id="paint27_linear_0_27" x1="775.987" y1="685.865" x2="1151.67" y2="367.45" gradientUnits="userSpaceOnUse">
<stop stop-color="#010101" stop-opacity="0.01"/>
<stop offset="0.36" stop-color="#010101" stop-opacity="0.36"/>
<stop offset="0.95" stop-color="#010101"/>
</linearGradient>
<linearGradient id="paint28_linear_0_27" x1="624.246" y1="448.751" x2="807.185" y2="317.322" gradientUnits="userSpaceOnUse">
<stop stop-color="white" stop-opacity="0.01"/>
<stop offset="0.07" stop-color="white" stop-opacity="0.22"/>
<stop offset="0.16" stop-color="white" stop-opacity="0.45"/>
<stop offset="0.25" stop-color="white" stop-opacity="0.65"/>
<stop offset="0.33" stop-color="white" stop-opacity="0.8"/>
<stop offset="0.4" stop-color="white" stop-opacity="0.91"/>
<stop offset="0.46" stop-color="white" stop-opacity="0.98"/>
<stop offset="0.51" stop-color="white"/>
</linearGradient>
<linearGradient id="paint29_linear_0_27" x1="637.859" y1="446.517" x2="753.717" y2="350.658" gradientUnits="userSpaceOnUse">
<stop stop-color="white" stop-opacity="0.01"/>
<stop offset="0.07" stop-color="white" stop-opacity="0.22"/>
<stop offset="0.16" stop-color="white" stop-opacity="0.45"/>
<stop offset="0.25" stop-color="white" stop-opacity="0.65"/>
<stop offset="0.33" stop-color="white" stop-opacity="0.8"/>
<stop offset="0.4" stop-color="white" stop-opacity="0.91"/>
<stop offset="0.46" stop-color="white" stop-opacity="0.98"/>
<stop offset="0.51" stop-color="white"/>
</linearGradient>
<linearGradient id="paint30_linear_0_27" x1="503.446" y1="612.745" x2="541.631" y2="612.767" gradientUnits="userSpaceOnUse">
<stop stop-color="white" stop-opacity="0.01"/>
<stop offset="0.07" stop-color="white" stop-opacity="0.22"/>
<stop offset="0.16" stop-color="white" stop-opacity="0.45"/>
<stop offset="0.25" stop-color="white" stop-opacity="0.65"/>
<stop offset="0.33" stop-color="white" stop-opacity="0.8"/>
<stop offset="0.4" stop-color="white" stop-opacity="0.91"/>
<stop offset="0.46" stop-color="white" stop-opacity="0.98"/>
<stop offset="0.51" stop-color="white"/>
</linearGradient>
<linearGradient id="paint31_linear_0_27" x1="430.154" y1="515.2" x2="441.805" y2="553.932" gradientUnits="userSpaceOnUse">
<stop stop-color="#010101" stop-opacity="0.01"/>
<stop offset="0.95" stop-color="#010101"/>
</linearGradient>
<linearGradient id="paint32_linear_0_27" x1="454.952" y1="663.933" x2="555.854" y2="665.976" gradientUnits="userSpaceOnUse">
<stop stop-color="#010101" stop-opacity="0.01"/>
<stop offset="0.95" stop-color="#010101"/>
</linearGradient>
<linearGradient id="paint33_linear_0_27" x1="857.723" y1="821.512" x2="761.63" y2="656.732" gradientUnits="userSpaceOnUse">
<stop stop-color="#010101" stop-opacity="0.01"/>
<stop offset="0.95" stop-color="#010101"/>
</linearGradient>
<linearGradient id="paint34_linear_0_27" x1="858.746" y1="359.892" x2="685.86" y2="364.761" gradientUnits="userSpaceOnUse">
<stop stop-color="#010101" stop-opacity="0.01"/>
<stop offset="0.95" stop-color="#010101"/>
</linearGradient>
</defs>
</svg>
