<svg width="36" height="36" viewBox="0 0 36 36" fill="none" xmlns="http://www.w3.org/2000/svg">
<path d="M31.6357 0.192505C31.8607 -0.0506776 32.2404 -0.0654691 32.4834 0.159302L35.123 2.60461C35.3664 2.82927 35.3819 3.20894 35.1572 3.45227L33.9346 4.77161L34.8145 5.59094V5.59192C35.0578 5.81685 35.0726 6.19652 34.8477 6.43958L32.4033 9.07922H32.4004V25.0773L34.9629 22.3839C35.1329 22.206 35.3943 22.1485 35.623 22.2394C35.8508 22.3306 35.9999 22.5517 36 22.797V35.3966C35.9998 35.7277 35.7308 35.9962 35.3994 35.9962H23.4004C23.2463 35.9965 23.0978 35.9372 22.9863 35.8312C22.7463 35.603 22.7366 35.2226 22.9648 34.9825L26.5713 31.1964H15.5771C15.5321 31.5253 15.3955 31.8356 15.1836 32.0909L12.1123 35.7804C11.9003 36.035 11.5212 36.0696 11.2666 35.8575L8.5 33.5538C8.24566 33.342 8.21117 32.9639 8.42285 32.7091L9.68262 31.1964H0.600586C0.269105 31.1964 5.15565e-05 30.928 0 30.5968V4.79895C0.00192258 3.14291 1.34385 1.80092 3 1.79895H3.59961C5.2558 1.80087 6.59769 3.14288 6.59961 4.79895H27.3701L31.6357 0.192505ZM24.7998 34.796H34.7998V24.297L24.7998 34.796ZM9.72949 33.0167L11.5742 34.5519L13.1094 32.7072L11.2646 31.171L9.72949 33.0167ZM33 28.1974C33.3312 28.1974 33.6006 28.4655 33.6006 28.797V32.9962C33.6006 33.3274 33.3315 33.5958 33 33.5958H28.8008C28.558 33.5958 28.3389 33.4498 28.2461 33.2257C28.1535 33.0018 28.2046 32.744 28.376 32.5724L32.5762 28.3732C32.6884 28.2606 32.8411 28.1975 33 28.1974ZM30.249 32.3966H32.4004V30.2452L30.249 32.3966ZM13.2617 29.7111C13.0071 29.499 12.6281 29.5336 12.416 29.7882L12.0332 30.2491L13.877 31.7843L14.2607 31.3234V31.3224C14.4725 31.0675 14.4385 30.6884 14.1836 30.4767L13.2617 29.7111ZM3.00098 28.1964C2.00671 28.1964 1.2002 29.0033 1.2002 29.9972H5.40039C5.40039 29.0034 4.59474 28.1965 3.60059 28.1964H3.00098ZM6.60059 29.9962H10.6807L11.4941 29.0206C12.1302 28.2566 13.2652 28.1532 14.0293 28.7892L14.9512 29.5568C15.0986 29.6822 15.2255 29.8301 15.3252 29.9962H27.7139L31.2002 26.337V7.72668L26.6006 12.6974C26.549 12.7504 26.4881 12.7939 26.4209 12.8243C26.4048 12.8322 26.389 12.8394 26.374 12.8448C26.3671 12.8473 26.3601 12.8513 26.3535 12.8546C26.346 12.8583 26.3383 12.8618 26.3301 12.8644L22.9697 13.8439C22.8756 13.8713 22.776 13.8746 22.6797 13.8546C22.3554 13.7871 22.1475 13.4698 22.2148 13.1456L22.9307 9.72083C22.9333 9.70911 22.938 9.69773 22.9424 9.68665C22.9451 9.67965 22.948 9.67203 22.9502 9.66516C22.9562 9.64718 22.9617 9.63059 22.9688 9.6134C22.9937 9.54974 23.0299 9.49073 23.0752 9.43958L26.2598 5.99817H6.60059V29.9962ZM3.00098 2.99817C2.00671 2.99817 1.2002 3.80476 1.2002 4.79895V27.6124C1.71655 27.2153 2.34949 26.9994 3.00098 26.9972H3.60059C4.25168 26.9994 4.88411 27.2154 5.40039 27.6124V4.79895C5.40039 3.80484 4.59474 2.9983 3.60059 2.99817H3.00098ZM18.5996 26.3966H17.3994V25.1974H18.5996V26.3966ZM17.5752 12.173C17.8095 11.9388 18.1896 11.9387 18.4238 12.173L22.0234 15.7726C22.1357 15.8854 22.1993 16.0382 22.2002 16.1974V22.797H26.3994C26.7308 22.797 26.9998 23.0656 27 23.3966C27 23.728 26.7315 23.9971 26.4004 23.9972H9.60059C9.26907 23.9972 9 23.7281 9 23.3966C9.0002 23.0656 9.2692 22.797 9.60059 22.797H13.7998V16.1974C13.8004 16.0385 13.8639 15.8857 13.9756 15.7726L17.5752 12.173ZM15 22.797H21V16.798H15V22.797ZM15.8486 15.5978H20.1523L18 13.4464L15.8486 15.5978ZM23.5928 12.4142L24.9736 12.0109L23.8877 11.006L23.5928 12.4142ZM24.3633 9.8136L26.126 11.4435L31.2002 5.96008V5.95129H31.207L32.2383 4.83801L30.4766 3.20813L24.3633 9.8136ZM18.5996 10.798H17.3994V9.59875H18.5996V10.798ZM32.3994 6.43079V7.31262L33.5596 6.05872L33.1201 5.65051L32.3994 6.43079ZM31.292 2.32727L33.0527 3.95813L33.8682 3.07629L32.1074 1.44641L31.292 2.32727Z" fill="black"/>
</svg>
